<svg width="15" height="15" viewBox="0 0 15 15" fill="none" xmlns="http://www.w3.org/2000/svg">
<path d="M13.0714 2.25H1.92857C1.69152 2.25 1.5 2.46328 1.5 2.72727V12.2727C1.5 12.5367 1.69152 12.75 1.92857 12.75H13.0714C13.3085 12.75 13.5 12.5367 13.5 12.2727V2.72727C13.5 2.46328 13.3085 2.25 13.0714 2.25ZM2.46429 3.32386H12.5357V5.11364H2.46429V3.32386ZM12.5357 11.6761H2.46429V6.42614H12.5357V11.6761ZM9.36161 10.7216H11.5714C11.6304 10.7216 11.6786 10.6679 11.6786 10.6023V9.52841C11.6786 9.46278 11.6304 9.40909 11.5714 9.40909H9.36161C9.30268 9.40909 9.25446 9.46278 9.25446 9.52841V10.6023C9.25446 10.6679 9.30268 10.7216 9.36161 10.7216Z" fill="#131313"/>
</svg>
